<svg width="60" height="60" viewBox="0 0 60 60" fill="none" xmlns="http://www.w3.org/2000/svg">
<path d="M55.3846 43.8462C55.3846 45.1207 56.4178 46.1538 57.6923 46.1538C58.9668 46.1538 60 45.1207 60 43.8462C60 42.5717 58.9668 41.5385 57.6923 41.5385C56.4178 41.5385 55.3846 42.5717 55.3846 43.8462Z" fill="#B3B3B3"/>
<path d="M55.3846 57.6923C55.3846 58.9668 56.4178 60 57.6923 60C58.9668 60 60 58.9668 60 57.6923C60 56.4178 58.9668 55.3846 57.6923 55.3846C56.4178 55.3846 55.3846 56.4178 55.3846 57.6923Z" fill="#B3B3B3"/>
<path d="M41.5385 16.1538C41.5385 17.4283 42.5717 18.4615 43.8462 18.4615C45.1207 18.4615 46.1538 17.4283 46.1538 16.1538C46.1538 14.8793 45.1207 13.8462 43.8462 13.8462C42.5717 13.8462 41.5385 14.8793 41.5385 16.1538Z" fill="#B3B3B3"/>
<path d="M41.5385 30C41.5385 31.2745 42.5717 32.3077 43.8462 32.3077C45.1207 32.3077 46.1538 31.2745 46.1538 30C46.1538 28.7255 45.1207 27.6923 43.8462 27.6923C42.5717 27.6923 41.5385 28.7255 41.5385 30Z" fill="#B3B3B3"/>
<path d="M41.5385 43.8462C41.5385 45.1207 42.5717 46.1538 43.8462 46.1538C45.1207 46.1538 46.1538 45.1207 46.1538 43.8462C46.1538 42.5717 45.1207 41.5385 43.8462 41.5385C42.5717 41.5385 41.5385 42.5717 41.5385 43.8462Z" fill="#B3B3B3"/>
<path d="M41.5385 57.6923C41.5385 58.9668 42.5717 60 43.8462 60C45.1207 60 46.1538 58.9668 46.1538 57.6923C46.1538 56.4178 45.1207 55.3846 43.8462 55.3846C42.5717 55.3846 41.5385 56.4178 41.5385 57.6923Z" fill="#B3B3B3"/>
<path d="M27.6923 16.1538C27.6923 17.4283 28.7255 18.4615 30 18.4615C31.2745 18.4615 32.3077 17.4283 32.3077 16.1538C32.3077 14.8793 31.2745 13.8462 30 13.8462C28.7255 13.8462 27.6923 14.8793 27.6923 16.1538Z" fill="#B3B3B3"/>
<path d="M27.6923 30C27.6923 31.2745 28.7255 32.3077 30 32.3077C31.2745 32.3077 32.3077 31.2745 32.3077 30C32.3077 28.7255 31.2745 27.6923 30 27.6923C28.7255 27.6923 27.6923 28.7255 27.6923 30Z" fill="#B3B3B3"/>
<path d="M27.6923 43.8462C27.6923 45.1207 28.7255 46.1538 30 46.1538C31.2745 46.1538 32.3077 45.1207 32.3077 43.8462C32.3077 42.5717 31.2745 41.5385 30 41.5385C28.7255 41.5385 27.6923 42.5717 27.6923 43.8462Z" fill="#B3B3B3"/>
<path d="M27.6923 57.6923C27.6923 58.9668 28.7255 60 30 60C31.2745 60 32.3077 58.9668 32.3077 57.6923C32.3077 56.4178 31.2745 55.3846 30 55.3846C28.7255 55.3846 27.6923 56.4178 27.6923 57.6923Z" fill="#B3B3B3"/>
<path d="M13.8462 2.30769C13.8462 3.5822 14.8793 4.61538 16.1538 4.61538C17.4283 4.61538 18.4615 3.5822 18.4615 2.30769C18.4615 1.03319 17.4283 0 16.1538 0C14.8793 0 13.8462 1.03319 13.8462 2.30769Z" fill="#B3B3B3"/>
<path d="M13.8462 16.1538C13.8462 17.4283 14.8793 18.4615 16.1538 18.4615C17.4283 18.4615 18.4615 17.4283 18.4615 16.1538C18.4615 14.8793 17.4283 13.8462 16.1538 13.8462C14.8793 13.8462 13.8462 14.8793 13.8462 16.1538Z" fill="#B3B3B3"/>
<path d="M13.8462 30C13.8462 31.2745 14.8793 32.3077 16.1538 32.3077C17.4283 32.3077 18.4615 31.2745 18.4615 30C18.4615 28.7255 17.4283 27.6923 16.1538 27.6923C14.8793 27.6923 13.8462 28.7255 13.8462 30Z" fill="#B3B3B3"/>
<path d="M13.8462 43.8462C13.8462 45.1207 14.8793 46.1538 16.1538 46.1538C17.4283 46.1538 18.4615 45.1207 18.4615 43.8462C18.4615 42.5717 17.4283 41.5385 16.1538 41.5385C14.8793 41.5385 13.8462 42.5717 13.8462 43.8462Z" fill="#B3B3B3"/>
<path d="M13.8462 57.6923C13.8462 58.9668 14.8793 60 16.1538 60C17.4283 60 18.4615 58.9668 18.4615 57.6923C18.4615 56.4178 17.4283 55.3846 16.1538 55.3846C14.8793 55.3846 13.8462 56.4178 13.8462 57.6923Z" fill="#B3B3B3"/>
<path d="M0 2.30769C0 3.5822 1.03319 4.61538 2.30769 4.61538C3.5822 4.61538 4.61539 3.5822 4.61539 2.30769C4.61539 1.03319 3.5822 0 2.30769 0C1.03319 0 0 1.03319 0 2.30769Z" fill="#B3B3B3"/>
<path d="M0 16.1538C0 17.4283 1.03319 18.4615 2.30769 18.4615C3.5822 18.4615 4.61539 17.4283 4.61539 16.1538C4.61539 14.8793 3.5822 13.8462 2.30769 13.8462C1.03319 13.8462 0 14.8793 0 16.1538Z" fill="#B3B3B3"/>
<path d="M0 30C0 31.2745 1.03319 32.3077 2.30769 32.3077C3.5822 32.3077 4.61539 31.2745 4.61539 30C4.61539 28.7255 3.5822 27.6923 2.30769 27.6923C1.03319 27.6923 0 28.7255 0 30Z" fill="#B3B3B3"/>
<path d="M0 43.8462C0 45.1207 1.03319 46.1538 2.30769 46.1538C3.5822 46.1538 4.61539 45.1207 4.61539 43.8462C4.61539 42.5717 3.5822 41.5385 2.30769 41.5385C1.03319 41.5385 0 42.5717 0 43.8462Z" fill="#B3B3B3"/>
<path d="M0 57.6923C0 58.9668 1.03319 60 2.30769 60C3.5822 60 4.61539 58.9668 4.61539 57.6923C4.61539 56.4178 3.5822 55.3846 2.30769 55.3846C1.03319 55.3846 0 56.4178 0 57.6923Z" fill="#B3B3B3"/>
</svg>
