<svg width="53" height="54" viewBox="0 0 53 54" fill="none" xmlns="http://www.w3.org/2000/svg">
<path d="M53 10.125V43.875C53 46.6641 52.0281 49.0488 50.0843 51.0293C48.1405 53.0098 45.7999 54 43.0625 54H35.3333C34.9653 54 34.6835 53.9883 34.488 53.9648C34.2924 53.9414 34.0681 53.8828 33.8151 53.7891C33.5621 53.6953 33.378 53.5254 33.263 53.2793C33.148 53.0332 33.0905 52.7109 33.0905 52.3125V43.9102C33.0905 41.6367 32.4924 39.9727 31.2962 38.918C32.6074 38.7773 33.7864 38.5664 34.833 38.2852C35.8797 38.0039 36.9608 37.5469 38.0765 36.9141C39.1922 36.2812 40.1238 35.502 40.8714 34.5762C41.619 33.6504 42.2286 32.4199 42.7002 30.8848C43.1718 29.3496 43.4076 27.5859 43.4076 25.5938C43.4076 22.7578 42.4989 20.3438 40.6816 18.3516C41.5328 16.2188 41.4408 13.8281 40.4056 11.1797C39.7615 10.9688 38.8299 11.0977 37.6107 11.5664C36.3915 12.0352 35.3333 12.5508 34.4362 13.1133L33.125 13.957C30.9857 13.3477 28.7773 13.043 26.5 13.043C24.2227 13.043 22.0143 13.3477 19.875 13.957C19.5069 13.6992 19.0181 13.3828 18.4085 13.0078C17.7989 12.6328 16.8385 12.1816 15.5273 11.6543C14.2161 11.127 13.227 10.9688 12.5599 11.1797C11.5477 13.8281 11.4672 16.2188 12.3184 18.3516C10.5011 20.3438 9.59245 22.7578 9.59245 25.5938C9.59245 27.5859 9.82823 29.3438 10.2998 30.8672C10.7714 32.3906 11.3752 33.6211 12.1113 34.5586C12.8474 35.4961 13.7733 36.2812 14.889 36.9141C16.0047 37.5469 17.0858 38.0039 18.1325 38.2852C19.1791 38.5664 20.3581 38.7773 21.6693 38.918C20.7491 39.7617 20.1855 40.9688 19.9785 42.5391C19.4954 42.7734 18.9779 42.9492 18.4258 43.0664C17.8737 43.1836 17.2181 43.2422 16.459 43.2422C15.6999 43.2422 14.9465 42.9902 14.1989 42.4863C13.4513 41.9824 12.8129 41.25 12.2839 40.2891C11.8468 39.5391 11.289 38.9297 10.6104 38.4609C9.93175 37.9922 9.36241 37.7109 8.90234 37.6172L8.21224 37.5117C7.72917 37.5117 7.39562 37.5645 7.21159 37.6699C7.02756 37.7754 6.97005 37.9102 7.03906 38.0742C7.10807 38.2383 7.21159 38.4023 7.34961 38.5664C7.48763 38.7305 7.63715 38.8711 7.79818 38.9883L8.03971 39.1641C8.54579 39.3984 9.04611 39.8438 9.54069 40.5C10.0353 41.1562 10.3976 41.7539 10.6276 42.293L10.9727 43.1016C11.2717 43.9922 11.7778 44.7129 12.4909 45.2637C13.204 45.8145 13.9746 46.166 14.8027 46.3184C15.6309 46.4707 16.4302 46.5527 17.2008 46.5645C17.9715 46.5762 18.6098 46.5352 19.1159 46.4414L19.9095 46.3008C19.9095 47.1914 19.9153 48.3984 19.9268 49.9219C19.9383 51.4453 19.944 52.2422 19.944 52.3125C19.944 52.8281 19.8175 53.2207 19.5645 53.4902C19.3114 53.7598 19.0584 53.9121 18.8053 53.9473C18.5523 53.9824 18.1727 54 17.6667 54H9.9375C7.20009 54 4.85948 53.0098 2.91569 51.0293C0.971897 49.0488 0 46.6641 0 43.875V10.125C0 7.33594 0.971897 4.95117 2.91569 2.9707C4.85948 0.990234 7.20009 0 9.9375 0H43.0625C45.7999 0 48.1405 0.990234 50.0843 2.9707C52.0281 4.95117 53 7.33594 53 10.125Z" fill="#30A529"/>
</svg>
