<svg width="53" height="54" viewBox="0 0 53 54" fill="none" xmlns="http://www.w3.org/2000/svg">
<path d="M26.5 20.5706C25.252 20.5711 24.0322 20.9486 22.9948 21.6553C21.9574 22.3621 21.149 23.3664 20.6717 24.5413C20.1945 25.7161 20.0698 27.0088 20.3136 28.2558C20.5573 29.5028 21.1585 30.6482 22.0411 31.5471C22.9237 32.446 24.0481 33.0581 25.2722 33.306C26.4962 33.5539 27.7648 33.4264 28.9178 32.9397C30.0707 32.453 31.0561 31.629 31.7494 30.5717C32.4426 29.5145 32.8127 28.2715 32.8127 27C32.8114 25.2948 32.1459 23.6598 30.9622 22.4543C29.7786 21.2488 28.1736 20.5713 26.5 20.5706ZM41.2536 15.6287C40.9324 14.7992 40.4473 14.0458 39.8284 13.4153C39.2096 12.7847 38.4701 12.2905 37.656 11.9632C35.1716 10.9639 29.2565 11.1881 26.5 11.1881C23.7435 11.1881 17.8343 10.9555 15.3428 11.9632C14.5287 12.2905 13.7893 12.7847 13.1704 13.4153C12.5515 14.0458 12.0664 14.7992 11.7452 15.6287C10.7656 18.1599 10.9845 24.1927 10.9845 26.9988C10.9845 29.8049 10.7656 35.8304 11.7499 38.3701C12.0712 39.1996 12.5563 39.953 13.1751 40.5835C13.794 41.2141 14.5334 41.7083 15.3475 42.0356C17.8319 43.0349 23.7471 42.8107 26.5047 42.8107C29.2624 42.8107 35.1693 43.0433 37.6608 42.0356C38.4749 41.7083 39.2143 41.2141 39.8332 40.5835C40.452 39.953 40.9371 39.1996 41.2584 38.3701C42.2462 35.8389 42.0191 29.8061 42.0191 27C42.0191 24.1939 42.2462 18.1696 41.2584 15.6299L41.2536 15.6287ZM26.5 36.8839C24.5813 36.8839 22.7058 36.3042 21.1105 35.2182C19.5152 34.1321 18.2718 32.5885 17.5375 30.7824C16.8033 28.9764 16.6112 26.989 16.9855 25.0717C17.3598 23.1544 18.2837 21.3933 19.6404 20.011C20.9971 18.6287 22.7257 17.6874 24.6075 17.306C26.4892 16.9246 28.4398 17.1203 30.2124 17.8684C31.985 18.6165 33.5 19.8834 34.566 21.5088C35.6319 23.1342 36.2009 25.0451 36.2009 27C36.2024 28.2984 35.9526 29.5844 35.4656 30.7843C34.9787 31.9842 34.2642 33.0744 33.363 33.9925C32.4619 34.9107 31.3919 35.6386 30.2142 36.1348C29.0365 36.6309 27.7744 36.8855 26.5 36.8839ZM36.6008 19.0085C36.1529 19.0087 35.715 18.8736 35.3424 18.6203C34.9699 18.3669 34.6795 18.0067 34.5079 17.5851C34.3364 17.1636 34.2914 16.6997 34.3786 16.2521C34.4658 15.8045 34.6814 15.3933 34.998 15.0705C35.3147 14.7478 35.7181 14.5279 36.1574 14.4388C36.5967 14.3497 37.052 14.3953 37.4658 14.5699C37.8796 14.7445 38.2334 15.0402 38.4822 15.4196C38.7311 15.799 38.8639 16.2451 38.8639 16.7014C38.8652 17.0045 38.8077 17.3048 38.6947 17.5851C38.5818 17.8655 38.4157 18.1204 38.2059 18.3352C37.996 18.55 37.7467 18.7204 37.472 18.8368C37.1974 18.9532 36.9029 19.0131 36.6055 19.0133L36.6008 19.0085ZM47.3214 0H5.67857C4.17252 0 2.72815 0.609565 1.66322 1.6946C0.598276 2.77963 0 4.25125 0 5.78571L0 48.2143C0 49.7488 0.598276 51.2204 1.66322 52.3054C2.72815 53.3904 4.17252 54 5.67857 54H47.3214C48.8275 54 50.2718 53.3904 51.3368 52.3054C52.4017 51.2204 53 49.7488 53 48.2143V5.78571C53 4.25125 52.4017 2.77963 51.3368 1.6946C50.2718 0.609565 48.8275 0 47.3214 0ZM45.2961 34.9554C45.1435 38.0447 44.4514 40.7821 42.2379 43.0312C40.0245 45.2804 37.3402 46 34.3116 46.1471C31.1872 46.3267 21.8199 46.3267 18.6955 46.1471C15.6634 45.9916 12.9862 45.2853 10.7692 43.0312C8.55217 40.7772 7.85536 38.0387 7.71103 34.9554C7.53475 31.7708 7.53475 22.2256 7.71103 19.0446C7.86364 15.9553 8.54743 13.2179 10.7692 10.9688C12.9909 8.71955 15.6752 8.00839 18.6955 7.86134C21.8199 7.68174 31.1872 7.68174 34.3116 7.86134C37.3437 8.01683 40.0292 8.72317 42.2379 10.9772C44.4467 13.2312 45.1517 15.9698 45.2961 19.0591C45.4723 22.2316 45.4723 31.7684 45.2961 34.9554Z" fill="#C4C8D0"/>
</svg>
