<svg width="53" height="54" viewBox="0 0 53 54" fill="none" xmlns="http://www.w3.org/2000/svg">
<path d="M49.2143 0H3.77388C1.69174 0 0 1.74777 0 3.8933V50.1067C0 52.2522 1.69174 54 3.77388 54H49.2143C51.2964 54 53 52.2522 53 50.1067V3.8933C53 1.74777 51.2964 0 49.2143 0ZM16.0183 46.2857H8.16295V20.5152H16.0301V46.2857H16.0183ZM12.0906 16.9955C9.57076 16.9955 7.53594 14.9103 7.53594 12.3549C7.53594 9.79955 9.57076 7.71429 12.0906 7.71429C14.5987 7.71429 16.6453 9.79955 16.6453 12.3549C16.6453 14.9223 14.6105 16.9955 12.0906 16.9955ZM45.4641 46.2857H37.6087V33.75C37.6087 30.7607 37.5496 26.9156 33.5272 26.9156C29.4339 26.9156 28.8069 30.1701 28.8069 33.533V46.2857H20.9516V20.5152H28.4875V24.0348H28.594C29.6469 22.0098 32.2141 19.8763 36.0353 19.8763C43.9853 19.8763 45.4641 25.2161 45.4641 32.1589V46.2857Z" fill="#30A529"/>
</svg>
