<svg width="310" height="40" viewBox="0 0 310 40" fill="none" xmlns="http://www.w3.org/2000/svg">
<path d="M7.992 5.736V39H0.12V5.736H7.992ZM27.096 5.736L16.488 20.664L27.96 39H18.84L8.232 21.24L18.792 5.736H27.096ZM51.7313 25.752C51.7313 26.808 51.6833 27.72 51.5873 28.488H35.7953C36.0513 30.632 36.6593 32.136 37.6193 33C38.5793 33.864 39.9073 34.296 41.6033 34.296C42.6273 34.296 43.6193 34.12 44.5793 33.768C45.5393 33.384 46.5793 32.808 47.6993 32.04L50.8193 36.264C47.8433 38.632 44.5313 39.816 40.8833 39.816C36.7553 39.816 33.5873 38.6 31.3793 36.168C29.1713 33.736 28.0673 30.472 28.0673 26.376C28.0673 23.784 28.5313 21.464 29.4593 19.416C30.3873 17.336 31.7473 15.704 33.5393 14.52C35.3313 13.304 37.4753 12.696 39.9713 12.696C43.6513 12.696 46.5313 13.848 48.6113 16.152C50.6913 18.456 51.7313 21.656 51.7313 25.752ZM44.2913 23.592C44.2273 19.688 42.8513 17.736 40.1633 17.736C38.8513 17.736 37.8273 18.216 37.0913 19.176C36.3873 20.136 35.9553 21.72 35.7953 23.928H44.2913V23.592ZM77.5526 13.512L69.5366 39H60.5606L52.3526 13.512H60.6086L65.1206 33.24L69.8246 13.512H77.5526ZM87.81 13.512V39H80.226V13.512H87.81ZM83.97 0.0719976C85.282 0.0719976 86.354 0.487998 87.186 1.32C88.05 2.12 88.482 3.144 88.482 4.392C88.482 5.64 88.05 6.68 87.186 7.512C86.354 8.312 85.282 8.712 83.97 8.712C82.658 8.712 81.586 8.312 80.754 7.512C79.922 6.68 79.506 5.64 79.506 4.392C79.506 3.144 79.922 2.12 80.754 1.32C81.586 0.487998 82.658 0.0719976 83.97 0.0719976ZM108.701 12.696C110.909 12.696 112.637 13.368 113.885 14.712C115.133 16.056 115.757 17.944 115.757 20.376V39H108.173V21.672C108.173 20.392 107.965 19.512 107.549 19.032C107.165 18.52 106.573 18.264 105.773 18.264C104.237 18.264 102.765 19.368 101.357 21.576V39H93.7729V13.512H100.397L100.925 16.536C102.013 15.256 103.181 14.296 104.429 13.656C105.709 13.016 107.133 12.696 108.701 12.696ZM143.715 4.92C146.211 4.92 148.371 5.272 150.195 5.976C152.051 6.68 153.731 7.752 155.235 9.192L151.587 13.464C149.315 11.608 146.883 10.68 144.291 10.68C142.915 10.68 141.827 10.968 141.027 11.544C140.227 12.088 139.827 12.888 139.827 13.944C139.827 14.68 140.003 15.288 140.355 15.768C140.707 16.216 141.331 16.648 142.227 17.064C143.123 17.48 144.467 17.976 146.259 18.552C149.651 19.64 152.147 20.984 153.747 22.584C155.347 24.152 156.147 26.392 156.147 29.304C156.147 31.384 155.619 33.224 154.563 34.824C153.507 36.392 151.987 37.624 150.003 38.52C148.019 39.384 145.667 39.816 142.947 39.816C140.227 39.816 137.811 39.384 135.699 38.52C133.619 37.656 131.827 36.504 130.323 35.064L134.307 30.696C135.587 31.784 136.899 32.6 138.243 33.144C139.619 33.688 141.107 33.96 142.707 33.96C144.339 33.96 145.619 33.608 146.547 32.904C147.507 32.168 147.987 31.16 147.987 29.88C147.987 29.048 147.811 28.36 147.459 27.816C147.107 27.24 146.499 26.728 145.635 26.28C144.771 25.832 143.523 25.352 141.891 24.84C138.211 23.72 135.587 22.344 134.019 20.712C132.483 19.08 131.715 17.016 131.715 14.52C131.715 12.6 132.227 10.92 133.251 9.48C134.275 8.008 135.699 6.888 137.523 6.12C139.347 5.32 141.411 4.92 143.715 4.92ZM175.263 12.696C177.471 12.696 179.199 13.368 180.447 14.712C181.695 16.056 182.319 17.944 182.319 20.376V39H174.735V21.672C174.735 20.392 174.527 19.512 174.111 19.032C173.695 18.52 173.103 18.264 172.335 18.264C170.799 18.264 169.327 19.352 167.919 21.528V39H160.335V3.384L167.919 2.616V16.248C168.975 15.064 170.095 14.184 171.279 13.608C172.463 13 173.791 12.696 175.263 12.696ZM195.623 13.512V39H188.039V13.512H195.623ZM191.783 0.0719976C193.095 0.0719976 194.167 0.487998 194.999 1.32C195.863 2.12 196.295 3.144 196.295 4.392C196.295 5.64 195.863 6.68 194.999 7.512C194.167 8.312 193.095 8.712 191.783 8.712C190.471 8.712 189.399 8.312 188.567 7.512C187.735 6.68 187.319 5.64 187.319 4.392C187.319 3.144 187.735 2.12 188.567 1.32C189.399 0.487998 190.471 0.0719976 191.783 0.0719976ZM215.409 12.792C216.337 12.792 217.185 12.904 217.953 13.128L216.753 20.472C215.793 20.248 215.025 20.136 214.449 20.136C212.945 20.136 211.793 20.664 210.993 21.72C210.225 22.744 209.617 24.296 209.169 26.376V39H201.585V13.512H208.209L208.833 18.456C209.409 16.696 210.273 15.32 211.425 14.328C212.609 13.304 213.937 12.792 215.409 12.792ZM230.438 12.696C234.342 12.696 237.398 13.896 239.606 16.296C241.814 18.664 242.918 21.992 242.918 26.28C242.918 29 242.406 31.384 241.382 33.432C240.39 35.448 238.95 37.016 237.062 38.136C235.206 39.256 232.998 39.816 230.438 39.816C226.566 39.816 223.51 38.632 221.27 36.264C219.062 33.864 217.958 30.52 217.958 26.232C217.958 23.512 218.454 21.144 219.446 19.128C220.47 17.08 221.91 15.496 223.766 14.376C225.654 13.256 227.878 12.696 230.438 12.696ZM230.438 18.264C228.902 18.264 227.75 18.92 226.982 20.232C226.214 21.512 225.83 23.512 225.83 26.232C225.83 29.016 226.198 31.048 226.934 32.328C227.702 33.608 228.87 34.248 230.438 34.248C231.974 34.248 233.126 33.608 233.894 32.328C234.662 31.016 235.046 29 235.046 26.28C235.046 23.496 234.662 21.464 233.894 20.184C233.158 18.904 232.006 18.264 230.438 18.264ZM275.605 12.696C277.621 12.696 279.237 13.384 280.453 14.76C281.669 16.104 282.277 17.976 282.277 20.376V39H274.693V21.672C274.693 19.4 273.973 18.264 272.533 18.264C271.733 18.264 271.029 18.536 270.421 19.08C269.813 19.624 269.221 20.456 268.645 21.576V39H261.061V21.672C261.061 19.4 260.341 18.264 258.901 18.264C258.133 18.264 257.429 18.552 256.789 19.128C256.181 19.672 255.589 20.488 255.013 21.576V39H247.429V13.512H254.053L254.581 16.488C255.573 15.208 256.661 14.264 257.845 13.656C259.061 13.016 260.437 12.696 261.973 12.696C263.413 12.696 264.645 13.048 265.669 13.752C266.725 14.456 267.493 15.448 267.973 16.728C268.997 15.352 270.117 14.344 271.333 13.704C272.581 13.032 274.005 12.696 275.605 12.696ZM308.232 31.608C308.232 32.568 308.36 33.272 308.616 33.72C308.904 34.168 309.352 34.504 309.96 34.728L308.376 39.672C306.808 39.544 305.528 39.208 304.536 38.664C303.544 38.088 302.776 37.192 302.232 35.976C300.568 38.536 298.008 39.816 294.552 39.816C292.024 39.816 290.008 39.08 288.504 37.608C287 36.136 286.248 34.216 286.248 31.848C286.248 29.064 287.272 26.936 289.32 25.464C291.368 23.992 294.328 23.256 298.2 23.256H300.792V22.152C300.792 20.648 300.472 19.624 299.832 19.08C299.192 18.504 298.072 18.216 296.472 18.216C295.64 18.216 294.632 18.344 293.448 18.6C292.264 18.824 291.048 19.144 289.8 19.56L288.072 14.568C289.672 13.96 291.304 13.496 292.968 13.176C294.664 12.856 296.232 12.696 297.672 12.696C301.32 12.696 303.992 13.448 305.688 14.952C307.384 16.456 308.232 18.712 308.232 21.72V31.608ZM296.76 34.392C298.488 34.392 299.832 33.576 300.792 31.944V27.432H298.92C297.192 27.432 295.896 27.736 295.032 28.344C294.2 28.952 293.784 29.896 293.784 31.176C293.784 32.2 294.04 33 294.552 33.576C295.096 34.12 295.832 34.392 296.76 34.392Z" fill="black"/>
</svg>
