<svg width="207" height="27" viewBox="0 0 207 27" fill="none" xmlns="http://www.w3.org/2000/svg">
<path d="M5.328 3.824V26H0.0800002V3.824H5.328ZM18.064 3.824L10.992 13.776L18.64 26H12.56L5.488 14.16L12.528 3.824H18.064ZM34.4875 17.168C34.4875 17.872 34.4555 18.48 34.3915 18.992H23.8635C24.0342 20.4213 24.4395 21.424 25.0795 22C25.7195 22.576 26.6048 22.864 27.7355 22.864C28.4182 22.864 29.0795 22.7467 29.7195 22.512C30.3595 22.256 31.0528 21.872 31.7995 21.36L33.8795 24.176C31.8955 25.7547 29.6875 26.544 27.2555 26.544C24.5035 26.544 22.3915 25.7333 20.9195 24.112C19.4475 22.4907 18.7115 20.3147 18.7115 17.584C18.7115 15.856 19.0208 14.3093 19.6395 12.944C20.2582 11.5573 21.1648 10.4693 22.3595 9.68C23.5542 8.86933 24.9835 8.464 26.6475 8.464C29.1008 8.464 31.0208 9.232 32.4075 10.768C33.7942 12.304 34.4875 14.4373 34.4875 17.168ZM29.5275 15.728C29.4848 13.1253 28.5675 11.824 26.7755 11.824C25.9008 11.824 25.2182 12.144 24.7275 12.784C24.2582 13.424 23.9702 14.48 23.8635 15.952H29.5275V15.728ZM51.7018 9.008L46.3578 26H40.3738L34.9017 9.008H40.4058L43.4138 22.16L46.5498 9.008H51.7018ZM58.54 9.008V26H53.484V9.008H58.54ZM55.98 0.0479984C56.8547 0.0479984 57.5693 0.325332 58.124 0.879999C58.7 1.41333 58.988 2.096 58.988 2.928C58.988 3.76 58.7 4.45333 58.124 5.008C57.5693 5.54133 56.8547 5.808 55.98 5.808C55.1053 5.808 54.3907 5.54133 53.836 5.008C53.2813 4.45333 53.004 3.76 53.004 2.928C53.004 2.096 53.2813 1.41333 53.836 0.879999C54.3907 0.325332 55.1053 0.0479984 55.98 0.0479984ZM72.4673 8.464C73.9393 8.464 75.0913 8.912 75.9233 9.808C76.7553 10.704 77.1713 11.9627 77.1713 13.584V26H72.1153V14.448C72.1153 13.5947 71.9766 13.008 71.6993 12.688C71.4433 12.3467 71.0486 12.176 70.5153 12.176C69.4913 12.176 68.5099 12.912 67.5713 14.384V26H62.5153V9.008H66.9313L67.2833 11.024C68.0086 10.1707 68.7873 9.53067 69.6193 9.104C70.4726 8.67733 71.4219 8.464 72.4673 8.464ZM95.8098 3.28C97.4738 3.28 98.9138 3.51467 100.13 3.984C101.367 4.45333 102.487 5.168 103.49 6.128L101.058 8.976C99.5431 7.73867 97.9218 7.12 96.1938 7.12C95.2764 7.12 94.5511 7.312 94.0178 7.696C93.4844 8.05867 93.2178 8.592 93.2178 9.296C93.2178 9.78667 93.3351 10.192 93.5698 10.512C93.8044 10.8107 94.2204 11.0987 94.8177 11.376C95.4151 11.6533 96.3111 11.984 97.5058 12.368C99.7671 13.0933 101.431 13.9893 102.498 15.056C103.564 16.1013 104.098 17.5947 104.098 19.536C104.098 20.9227 103.746 22.1493 103.042 23.216C102.338 24.2613 101.324 25.0827 100.002 25.68C98.6791 26.256 97.1111 26.544 95.2978 26.544C93.4844 26.544 91.8738 26.256 90.4658 25.68C89.0791 25.104 87.8844 24.336 86.8818 23.376L89.5378 20.464C90.3911 21.1893 91.2658 21.7333 92.1618 22.096C93.0791 22.4587 94.0711 22.64 95.1378 22.64C96.2258 22.64 97.0791 22.4053 97.6978 21.936C98.3378 21.4453 98.6578 20.7733 98.6578 19.92C98.6578 19.3653 98.5404 18.9067 98.3058 18.544C98.0711 18.16 97.6658 17.8187 97.0898 17.52C96.5138 17.2213 95.6818 16.9013 94.5938 16.56C92.1404 15.8133 90.3911 14.896 89.3458 13.808C88.3218 12.72 87.8098 11.344 87.8098 9.68C87.8098 8.4 88.1511 7.28 88.8338 6.32C89.5164 5.33867 90.4658 4.592 91.6818 4.08C92.8978 3.54667 94.2738 3.28 95.8098 3.28ZM116.842 8.464C118.314 8.464 119.466 8.912 120.298 9.808C121.13 10.704 121.546 11.9627 121.546 13.584V26H116.49V14.448C116.49 13.5947 116.352 13.008 116.074 12.688C115.797 12.3467 115.402 12.176 114.89 12.176C113.866 12.176 112.885 12.9013 111.946 14.352V26H106.89V2.256L111.946 1.744V10.832C112.65 10.0427 113.397 9.456 114.186 9.072C114.976 8.66667 115.861 8.464 116.842 8.464ZM130.415 9.008V26H125.359V9.008H130.415ZM127.855 0.0479984C128.73 0.0479984 129.444 0.325332 129.999 0.879999C130.575 1.41333 130.863 2.096 130.863 2.928C130.863 3.76 130.575 4.45333 129.999 5.008C129.444 5.54133 128.73 5.808 127.855 5.808C126.98 5.808 126.266 5.54133 125.711 5.008C125.156 4.45333 124.879 3.76 124.879 2.928C124.879 2.096 125.156 1.41333 125.711 0.879999C126.266 0.325332 126.98 0.0479984 127.855 0.0479984ZM143.606 8.528C144.225 8.528 144.79 8.60267 145.302 8.752L144.502 13.648C143.862 13.4987 143.35 13.424 142.966 13.424C141.964 13.424 141.196 13.776 140.662 14.48C140.15 15.1627 139.745 16.1973 139.446 17.584V26H134.39V9.008H138.806L139.222 12.304C139.606 11.1307 140.182 10.2133 140.95 9.552C141.74 8.86933 142.625 8.528 143.606 8.528ZM153.625 8.464C156.228 8.464 158.265 9.264 159.737 10.864C161.209 12.4427 161.945 14.6613 161.945 17.52C161.945 19.3333 161.604 20.9227 160.921 22.288C160.26 23.632 159.3 24.6773 158.041 25.424C156.804 26.1707 155.332 26.544 153.625 26.544C151.044 26.544 149.007 25.7547 147.513 24.176C146.041 22.576 145.305 20.3467 145.305 17.488C145.305 15.6747 145.636 14.096 146.297 12.752C146.98 11.3867 147.94 10.3307 149.177 9.584C150.436 8.83733 151.919 8.464 153.625 8.464ZM153.625 12.176C152.601 12.176 151.833 12.6133 151.321 13.488C150.809 14.3413 150.553 15.6747 150.553 17.488C150.553 19.344 150.799 20.6987 151.289 21.552C151.801 22.4053 152.58 22.832 153.625 22.832C154.649 22.832 155.417 22.4053 155.929 21.552C156.441 20.6773 156.697 19.3333 156.697 17.52C156.697 15.664 156.441 14.3093 155.929 13.456C155.439 12.6027 154.671 12.176 153.625 12.176ZM183.737 8.464C185.081 8.464 186.158 8.92267 186.969 9.84C187.779 10.736 188.185 11.984 188.185 13.584V26H183.129V14.448C183.129 12.9333 182.649 12.176 181.689 12.176C181.155 12.176 180.686 12.3573 180.281 12.72C179.875 13.0827 179.481 13.6373 179.097 14.384V26H174.041V14.448C174.041 12.9333 173.561 12.176 172.601 12.176C172.089 12.176 171.619 12.368 171.193 12.752C170.787 13.1147 170.393 13.6587 170.009 14.384V26H164.953V9.008H169.369L169.721 10.992C170.382 10.1387 171.107 9.50933 171.897 9.104C172.707 8.67733 173.625 8.464 174.649 8.464C175.609 8.464 176.43 8.69867 177.113 9.168C177.817 9.63733 178.329 10.2987 178.649 11.152C179.331 10.2347 180.078 9.56267 180.889 9.136C181.721 8.688 182.67 8.464 183.737 8.464ZM205.488 21.072C205.488 21.712 205.573 22.1813 205.744 22.48C205.936 22.7787 206.235 23.0027 206.64 23.152L205.584 26.448C204.539 26.3627 203.685 26.1387 203.024 25.776C202.363 25.392 201.851 24.7947 201.488 23.984C200.379 25.6907 198.672 26.544 196.368 26.544C194.683 26.544 193.339 26.0533 192.336 25.072C191.333 24.0907 190.832 22.8107 190.832 21.232C190.832 19.376 191.515 17.9573 192.88 16.976C194.245 15.9947 196.219 15.504 198.8 15.504H200.528V14.768C200.528 13.7653 200.315 13.0827 199.888 12.72C199.461 12.336 198.715 12.144 197.648 12.144C197.093 12.144 196.421 12.2293 195.632 12.4C194.843 12.5493 194.032 12.7627 193.2 13.04L192.048 9.712C193.115 9.30667 194.203 8.99733 195.312 8.784C196.443 8.57067 197.488 8.464 198.448 8.464C200.88 8.464 202.661 8.96533 203.792 9.968C204.923 10.9707 205.488 12.4747 205.488 14.48V21.072ZM197.84 22.928C198.992 22.928 199.888 22.384 200.528 21.296V18.288H199.28C198.128 18.288 197.264 18.4907 196.688 18.896C196.133 19.3013 195.856 19.9307 195.856 20.784C195.856 21.4667 196.027 22 196.368 22.384C196.731 22.7467 197.221 22.928 197.84 22.928Z" fill="white"/>
</svg>
