<svg width="74" height="74" viewBox="0 0 74 74" fill="none" xmlns="http://www.w3.org/2000/svg">
<path d="M59.2999 33.3939L60.9331 31.7607L56.0335 26.8611L47.0581 17.8857L42.1585 12.9861L40.5253 14.6193L37.2589 17.8857L8.46826 46.6764C6.96513 48.1795 5.86669 50.0439 5.25966 52.0818L0.143255 69.4834C-0.218073 70.6975 0.114349 72.0127 1.0249 72.9088C1.93544 73.8049 3.23622 74.1373 4.45029 73.7904L21.8374 68.674C23.8753 68.067 25.7397 66.9686 27.2429 65.4654L56.0335 36.6748L59.2999 33.3939ZM23.1237 57.733L21.8085 61.0139C21.2304 61.4619 20.58 61.7943 19.8862 62.0111L8.58388 65.3354L11.9081 54.0475C12.1104 53.3393 12.4573 52.6889 12.9054 52.1252L16.1862 50.81V55.435C16.1862 56.7068 17.2268 57.7475 18.4987 57.7475H23.1237V57.733ZM52.4202 2.70996L50.339 4.80566L47.0726 8.07207L45.4249 9.70527L50.3245 14.6049L59.2999 23.5803L64.1995 28.4799L65.8327 26.8467L69.0991 23.5803L71.1948 21.4846C74.8081 17.8713 74.8081 12.0178 71.1948 8.40449L65.5147 2.70996C61.9015 -0.90332 56.0479 -0.90332 52.4347 2.70996H52.4202ZM45.5694 26.9912L24.7569 47.8037C23.8608 48.6998 22.3866 48.6998 21.4905 47.8037C20.5944 46.9076 20.5944 45.4334 21.4905 44.5373L42.303 23.7248C43.1991 22.8287 44.6733 22.8287 45.5694 23.7248C46.4655 24.6209 46.4655 26.0951 45.5694 26.9912Z" fill="#004217"/>
</svg>
