<svg width="103" height="79" viewBox="0 0 103 79" fill="none" xmlns="http://www.w3.org/2000/svg">
<path d="M63.2122 0.191058C60.4763 -0.555426 57.6277 0.952777 56.8391 3.54262L36.2391 71.7926C35.4505 74.3825 37.0438 77.0789 39.7797 77.8254C42.5157 78.5719 45.3643 77.0637 46.1529 74.4739L66.7529 6.22387C67.5414 3.63403 65.9482 0.937543 63.2122 0.191058ZM76.1838 18.4875C74.1721 20.3918 74.1721 23.4844 76.1838 25.3887L90.5555 39.0082L76.1677 52.6278C74.156 54.5321 74.156 57.6247 76.1677 59.529C78.1794 61.4333 81.4464 61.4333 83.4582 59.529L101.483 42.4665C103.495 40.5622 103.495 37.4696 101.483 35.5653L83.4582 18.5028C81.4464 16.5985 78.1794 16.5985 76.1677 18.5028L76.1838 18.4875ZM26.8243 18.4875C24.8125 16.5832 21.5455 16.5832 19.5338 18.4875L1.50879 35.55C-0.50293 37.4543 -0.50293 40.5469 1.50879 42.4512L19.5338 59.5137C21.5455 61.418 24.8125 61.418 26.8243 59.5137C28.836 57.6094 28.836 54.5168 26.8243 52.6125L12.4364 39.0082L26.8243 25.3887C28.836 23.4844 28.836 20.3918 26.8243 18.4875Z" fill="#004217"/>
</svg>
